<svg width="98" height="87" viewBox="0 0 98 87" fill="none" xmlns="http://www.w3.org/2000/svg">
<g filter="url(#filter0_d_92_846)">
<path d="M56.5832 48.3333V45.5833V42.8333M56.5832 48.3333H41.426M56.5832 48.3333H57.0737M56.5832 35.5V30.1667C56.5832 29.0621 55.6877 28.1667 54.5832 28.1667L33.9166 28.1667C32.2598 28.1667 30.9166 29.5098 30.9166 31.1666L30.9165 47.3333C30.9165 47.8856 31.3642 48.3333 31.9165 48.3333H35.0737M56.5832 35.5H62.9998C62.9998 35.5 67.2037 38.23 67.5832 41C67.6803 41.7093 67.5832 42.8333 67.5832 42.8333M56.5832 35.5V42.8333M67.5832 42.8333H56.5832M67.5832 42.8333V47.3333C67.5832 47.8856 67.1355 48.3333 66.5832 48.3333H63.426M41.426 48.3333C40.792 47.2374 39.607 46.5 38.2498 46.5C36.8927 46.5 35.7077 47.2374 35.0737 48.3333M41.426 48.3333C41.7379 48.8726 41.9165 49.4988 41.9165 50.1667C41.9165 52.1917 40.2749 53.8333 38.2498 53.8333C36.2248 53.8333 34.5832 52.1917 34.5832 50.1667C34.5832 49.4988 34.7617 48.8726 35.0737 48.3333M57.0737 48.3333C56.7617 48.8726 56.5832 49.4988 56.5832 50.1667C56.5832 52.1917 58.2248 53.8333 60.2498 53.8333C62.2749 53.8333 63.9165 52.1917 63.9165 50.1667C63.9165 49.4988 63.738 48.8726 63.426 48.3333M57.0737 48.3333C57.7077 47.2374 58.8927 46.5 60.2498 46.5C61.607 46.5 62.792 47.2374 63.426 48.3333" stroke="#F6DA6B" stroke-width="2.75"/>
</g>
<defs>
<filter id="filter0_d_92_846" x="-1.49516" y="-7.44555" width="101.49" height="101.49" filterUnits="userSpaceOnUse" color-interpolation-filters="sRGB">
<feFlood flood-opacity="0" result="BackgroundImageFix"/>
<feColorMatrix in="SourceAlpha" type="matrix" values="0 0 0 0 0 0 0 0 0 0 0 0 0 0 0 0 0 0 127 0" result="hardAlpha"/>
<feOffset dy="2.29961"/>
<feGaussianBlur stdDeviation="14.3726"/>
<feColorMatrix type="matrix" values="0 0 0 0 0.964706 0 0 0 0 0.854902 0 0 0 0 0.419608 0 0 0 0.7 0"/>
<feBlend mode="normal" in2="BackgroundImageFix" result="effect1_dropShadow_92_846"/>
<feBlend mode="normal" in="SourceGraphic" in2="effect1_dropShadow_92_846" result="shape"/>
</filter>
</defs>
</svg>
