<svg width="88" height="81" viewBox="0 0 88 81" fill="none" xmlns="http://www.w3.org/2000/svg">
<g filter="url(#filter0_b_85_1759)">
<path fill-rule="evenodd" clip-rule="evenodd" d="M61.0933 14.3054C59.8533 12.8491 58.6134 12.1842 56.7224 12.1842H14.8586C13.8666 12.1842 13.0606 11.4244 12.9677 10.4082L12.3787 3.3165C12.2857 2.24009 11.5107 1.3568 10.4567 1.16367L3.06354 0.0271088C1.79259 -0.166012 0.583634 0.691952 0.366643 1.98681C0.149651 3.25318 1.01762 4.48789 2.25757 4.7095C5.01541 5.19448 7.09918 7.47849 7.32979 10.2691L9.79027 40.0443C10.1313 44.2233 13.5411 47.4494 17.664 47.4494H51.4836C55.4205 47.4494 58.7684 44.5083 59.3263 40.5161L62.2712 19.7476C62.5502 17.8512 62.3332 15.7617 61.0933 14.3054Z" fill="url(#paint0_linear_85_1759)"/>
</g>
<g filter="url(#filter1_f_85_1759)">
<rect x="15.0757" y="20.6536" width="37.1766" height="22.3059" rx="4.13073" fill="#FAD350" fill-opacity="0.5"/>
</g>
<g filter="url(#filter2_b_85_1759)">
<mask id="path-3-outside-1_85_1759" maskUnits="userSpaceOnUse" x="17.6658" y="11.531" width="70" height="70" fill="black">
<rect fill="white" x="17.6658" y="11.531" width="70" height="70"/>
<path fill-rule="evenodd" clip-rule="evenodd" d="M25.3485 25.7801C23.2923 25.7801 21.9439 26.5031 20.5956 28.0867C19.2473 29.6703 19.0114 31.9424 19.3147 34.0045L22.517 56.5881C23.1237 60.9292 26.7642 64.1274 31.0451 64.1274H67.8206C72.3037 64.1274 76.0116 60.6194 76.3824 56.0751L79.4835 18.5472L84.5734 17.6521C85.9218 17.4111 86.8656 16.0685 86.6296 14.6915C86.3937 13.2834 85.0791 12.3505 83.697 12.5605L75.6577 13.7964C74.5116 14.0064 73.6689 14.9669 73.5678 16.1374L72.9273 23.8488C72.8262 24.9539 71.9498 25.7801 70.8711 25.7801H25.3485ZM68.361 69.5689C71.1925 69.5689 73.4846 71.9099 73.4846 74.8017C73.4846 77.659 71.1925 80 68.361 80C65.5632 80 63.2711 77.659 63.2711 74.8017C63.2711 71.9099 65.5632 69.5689 68.361 69.5689ZM30.4398 69.5689C33.2713 69.5689 35.5634 71.9099 35.5634 74.8017C35.5634 77.659 33.2713 80 30.4398 80C27.642 80 25.3499 77.659 25.3499 74.8017C25.3499 71.9099 27.642 69.5689 30.4398 69.5689Z"/>
</mask>
<path fill-rule="evenodd" clip-rule="evenodd" d="M25.3485 25.7801C23.2923 25.7801 21.9439 26.5031 20.5956 28.0867C19.2473 29.6703 19.0114 31.9424 19.3147 34.0045L22.517 56.5881C23.1237 60.9292 26.7642 64.1274 31.0451 64.1274H67.8206C72.3037 64.1274 76.0116 60.6194 76.3824 56.0751L79.4835 18.5472L84.5734 17.6521C85.9218 17.4111 86.8656 16.0685 86.6296 14.6915C86.3937 13.2834 85.0791 12.3505 83.697 12.5605L75.6577 13.7964C74.5116 14.0064 73.6689 14.9669 73.5678 16.1374L72.9273 23.8488C72.8262 24.9539 71.9498 25.7801 70.8711 25.7801H25.3485ZM68.361 69.5689C71.1925 69.5689 73.4846 71.9099 73.4846 74.8017C73.4846 77.659 71.1925 80 68.361 80C65.5632 80 63.2711 77.659 63.2711 74.8017C63.2711 71.9099 65.5632 69.5689 68.361 69.5689ZM30.4398 69.5689C33.2713 69.5689 35.5634 71.9099 35.5634 74.8017C35.5634 77.659 33.2713 80 30.4398 80C27.642 80 25.3499 77.659 25.3499 74.8017C25.3499 71.9099 27.642 69.5689 30.4398 69.5689Z" fill="#FDD356" fill-opacity="0.35"/>
<path d="M20.5956 28.0867L19.9666 27.5511L20.5956 28.0867ZM19.3147 34.0045L20.1321 33.8843L20.1327 33.8885L19.3147 34.0045ZM22.517 56.5881L23.3349 56.4721L23.3352 56.4737L22.517 56.5881ZM76.3824 56.0751L75.559 56.0079L75.559 56.0071L76.3824 56.0751ZM79.4835 18.5472L78.6602 18.4792C78.6911 18.1049 78.9706 17.7986 79.3404 17.7335L79.4835 18.5472ZM84.5734 17.6521L84.7188 18.4654L84.7165 18.4658L84.5734 17.6521ZM86.6296 14.6915L85.8153 14.831L85.8148 14.828L86.6296 14.6915ZM83.697 12.5605L83.5715 11.7439L83.5729 11.7437L83.697 12.5605ZM75.6577 13.7964L75.5088 12.9838C75.5165 12.9823 75.5243 12.981 75.5321 12.9798L75.6577 13.7964ZM73.5678 16.1374L72.7445 16.069L72.7447 16.0663L73.5678 16.1374ZM72.9273 23.8488L73.7507 23.9172L73.75 23.9241L72.9273 23.8488ZM19.9666 27.5511C20.688 26.7039 21.4465 26.0428 22.3392 25.5996C23.2369 25.1538 24.2185 24.954 25.3485 24.954V26.6063C24.4222 26.6063 23.7016 26.7679 23.074 27.0795C22.4413 27.3936 21.8516 27.8859 21.2247 28.6222L19.9666 27.5511ZM18.4974 34.1248C18.1781 31.9547 18.3964 29.3952 19.9666 27.5511L21.2247 28.6222C20.0982 29.9453 19.8446 31.9301 20.1321 33.8843L18.4974 34.1248ZM21.699 56.7041L18.4968 34.1205L20.1327 33.8885L23.3349 56.4721L21.699 56.7041ZM31.0451 64.9535C26.3419 64.9535 22.3611 61.4415 21.6988 56.7024L23.3352 56.4737C23.8863 60.417 27.1865 63.3012 31.0451 63.3012V64.9535ZM67.8206 64.9535H31.0451V63.3012H67.8206V64.9535ZM77.2058 56.1423C76.8014 61.0989 72.7502 64.9535 67.8206 64.9535V63.3012C71.8572 63.3012 75.2218 60.1398 75.559 56.0079L77.2058 56.1423ZM80.3069 18.6152L77.2057 56.1432L75.559 56.0071L78.6602 18.4792L80.3069 18.6152ZM84.7165 18.4658L79.6266 19.3608L79.3404 17.7335L84.4303 16.8384L84.7165 18.4658ZM87.4439 14.5519C87.7557 16.3713 86.519 18.1436 84.7188 18.4654L84.4281 16.8389C85.3245 16.6786 85.9755 15.7657 85.8153 14.831L87.4439 14.5519ZM83.5729 11.7437C85.3981 11.4664 87.1333 12.6986 87.4444 14.5549L85.8148 14.828C85.654 13.8682 84.76 13.2346 83.8211 13.3773L83.5729 11.7437ZM75.5321 12.9798L83.5715 11.7439L83.8226 13.377L75.7832 14.6129L75.5321 12.9798ZM72.7447 16.0663C72.8765 14.541 73.9809 13.2637 75.5088 12.9838L75.8066 14.609C75.0423 14.749 74.4613 15.3927 74.3908 16.2085L72.7447 16.0663ZM72.104 23.7804L72.7445 16.069L74.3911 16.2057L73.7506 23.9172L72.104 23.7804ZM70.8711 24.954C71.5007 24.954 72.0404 24.4756 72.1046 23.7735L73.75 23.9241C73.612 25.4322 72.3989 26.6063 70.8711 26.6063V24.954ZM25.3485 24.954H70.8711V26.6063H25.3485V24.954ZM72.6585 74.8017C72.6585 72.3496 70.7199 70.395 68.361 70.395V68.7427C71.6651 68.7427 74.3108 71.4701 74.3108 74.8017H72.6585ZM68.361 79.1739C70.7234 79.1739 72.6585 77.2157 72.6585 74.8017H74.3108C74.3108 78.1024 71.6616 80.8261 68.361 80.8261V79.1739ZM64.0972 74.8017C64.0972 77.2193 66.0358 79.1739 68.361 79.1739V80.8261C65.0906 80.8261 62.4449 78.0988 62.4449 74.8017H64.0972ZM68.361 70.395C66.0393 70.395 64.0972 72.346 64.0972 74.8017H62.4449C62.4449 71.4737 65.0871 68.7427 68.361 68.7427V70.395ZM34.7373 74.8017C34.7373 72.3496 32.7987 70.395 30.4398 70.395V68.7427C33.7439 68.7427 36.3895 71.4701 36.3895 74.8017H34.7373ZM30.4398 79.1739C32.8022 79.1739 34.7373 77.2157 34.7373 74.8017H36.3895C36.3895 78.1024 33.7403 80.8261 30.4398 80.8261V79.1739ZM26.176 74.8017C26.176 77.2193 28.1146 79.1739 30.4398 79.1739V80.8261C27.1694 80.8261 24.5237 78.0988 24.5237 74.8017H26.176ZM30.4398 70.395C28.1181 70.395 26.176 72.346 26.176 74.8017H24.5237C24.5237 71.4737 27.1659 68.7427 30.4398 68.7427V70.395Z" fill="url(#paint1_linear_85_1759)" mask="url(#path-3-outside-1_85_1759)"/>
</g>
<g filter="url(#filter3_bd_85_1759)">
<mask id="path-5-inside-2_85_1759" fill="white">
<path fill-rule="evenodd" clip-rule="evenodd" d="M39.4999 33.6618L39.4999 45.3387C39.4999 47.1091 41.0866 48.5002 42.9999 48.5002C44.9599 48.5002 46.4999 47.1091 46.4999 45.3387L46.4999 33.6618C46.4999 31.8913 44.9599 30.5002 42.9999 30.5002C41.0866 30.5002 39.4999 31.8913 39.4999 33.6618Z"/>
</mask>
<path fill-rule="evenodd" clip-rule="evenodd" d="M39.4999 33.6618L39.4999 45.3387C39.4999 47.1091 41.0866 48.5002 42.9999 48.5002C44.9599 48.5002 46.4999 47.1091 46.4999 45.3387L46.4999 33.6618C46.4999 31.8913 44.9599 30.5002 42.9999 30.5002C41.0866 30.5002 39.4999 31.8913 39.4999 33.6618Z" fill="white"/>
<path d="M39.6652 33.6618L39.6652 45.3387L39.3347 45.3387L39.3347 33.6618L39.6652 33.6618ZM39.6652 45.3387C39.6652 47.0011 41.1602 48.335 42.9999 48.335L42.9999 48.6655C41.0131 48.6655 39.3347 47.2172 39.3347 45.3387L39.6652 45.3387ZM42.9999 48.335C44.8849 48.335 46.3347 47.0025 46.3347 45.3387L46.6652 45.3387C46.6652 47.2158 45.035 48.6655 42.9999 48.6655L42.9999 48.335ZM46.3347 45.3387L46.3347 33.6618L46.6652 33.6618L46.6652 45.3387L46.3347 45.3387ZM46.3347 33.6618C46.3347 31.998 44.8849 30.6655 42.9999 30.6655L42.9999 30.335C45.035 30.335 46.6652 31.7847 46.6652 33.6618L46.3347 33.6618ZM42.9999 30.6655C41.1602 30.6655 39.6652 31.9994 39.6652 33.6618L39.3347 33.6618C39.3347 31.7833 41.0131 30.335 42.9999 30.335L42.9999 30.6655Z" fill="white" mask="url(#path-5-inside-2_85_1759)"/>
</g>
<defs>
<filter id="filter0_b_85_1759" x="-7.74467" y="-8.07801" width="78.2019" height="63.6055" filterUnits="userSpaceOnUse" color-interpolation-filters="sRGB">
<feFlood flood-opacity="0" result="BackgroundImageFix"/>
<feGaussianBlur in="BackgroundImageFix" stdDeviation="4.03901"/>
<feComposite in2="SourceAlpha" operator="in" result="effect1_backgroundBlur_85_1759"/>
<feBlend mode="normal" in="SourceGraphic" in2="effect1_backgroundBlur_85_1759" result="shape"/>
</filter>
<filter id="filter1_f_85_1759" x="3.50965" y="9.08753" width="60.3086" height="45.438" filterUnits="userSpaceOnUse" color-interpolation-filters="sRGB">
<feFlood flood-opacity="0" result="BackgroundImageFix"/>
<feBlend mode="normal" in="SourceGraphic" in2="BackgroundImageFix" result="shape"/>
<feGaussianBlur stdDeviation="5.78302" result="effect1_foregroundBlur_85_1759"/>
</filter>
<filter id="filter2_b_85_1759" x="-1.45603" y="-8.12266" width="108.776" height="108.776" filterUnits="userSpaceOnUse" color-interpolation-filters="sRGB">
<feFlood flood-opacity="0" result="BackgroundImageFix"/>
<feGaussianBlur in="BackgroundImageFix" stdDeviation="9.91375"/>
<feComposite in2="SourceAlpha" operator="in" result="effect1_backgroundBlur_85_1759"/>
<feBlend mode="normal" in="SourceGraphic" in2="effect1_backgroundBlur_85_1759" result="shape"/>
</filter>
<filter id="filter3_bd_85_1759" x="27.1078" y="18.1081" width="31.7844" height="42.7844" filterUnits="userSpaceOnUse" color-interpolation-filters="sRGB">
<feFlood flood-opacity="0" result="BackgroundImageFix"/>
<feGaussianBlur in="BackgroundImageFix" stdDeviation="6.19609"/>
<feComposite in2="SourceAlpha" operator="in" result="effect1_backgroundBlur_85_1759"/>
<feColorMatrix in="SourceAlpha" type="matrix" values="0 0 0 0 0 0 0 0 0 0 0 0 0 0 0 0 0 0 127 0" result="hardAlpha"/>
<feOffset dx="4.13073" dy="4.13073"/>
<feGaussianBlur stdDeviation="4.13073"/>
<feColorMatrix type="matrix" values="0 0 0 0 0.980392 0 0 0 0 0.827451 0 0 0 0 0.313726 0 0 0 0.5 0"/>
<feBlend mode="normal" in2="effect1_backgroundBlur_85_1759" result="effect2_dropShadow_85_1759"/>
<feBlend mode="normal" in="SourceGraphic" in2="effect2_dropShadow_85_1759" result="shape"/>
</filter>
<linearGradient id="paint0_linear_85_1759" x1="35.9241" y1="26.9021" x2="-12.0793" y2="57.4224" gradientUnits="userSpaceOnUse">
<stop stop-color="#FFDC73"/>
<stop offset="1" stop-color="#FDD356"/>
</linearGradient>
<linearGradient id="paint1_linear_85_1759" x1="75.9259" y1="20.3912" x2="32.8878" y2="73.6946" gradientUnits="userSpaceOnUse">
<stop stop-color="white" stop-opacity="0.25"/>
<stop offset="1" stop-color="white" stop-opacity="0"/>
</linearGradient>
</defs>
</svg>
