<svg width="104" height="80" viewBox="0 0 104 80" fill="none" xmlns="http://www.w3.org/2000/svg">
<g filter="url(#filter0_b_85_1788)">
<path d="M74.6876 41.9434H72.7811V29.0744C72.7811 27.6445 72.0661 26.0955 70.9937 25.0231L59.1971 13.2265C58.1247 12.1541 56.5756 11.4391 55.1458 11.4391H49.9028V5.71956C49.9028 2.62146 47.2814 0 44.1833 0H6.0529C2.83565 0 0.333344 2.62146 0.333344 5.71956V43.8499C0.333344 47.0672 2.83565 49.5695 6.0529 49.5695H7.95942C7.95942 55.8848 13.0832 61.0086 19.3985 61.0086C25.7139 61.0086 30.8376 55.8848 30.8376 49.5695H46.0898C46.0898 55.8848 51.2136 61.0086 57.5289 61.0086C63.8443 61.0086 68.968 55.8848 68.968 49.5695H74.6876C75.6408 49.5695 76.5941 48.7354 76.5941 47.663V43.8499C76.5941 42.8967 75.6408 41.9434 74.6876 41.9434ZM19.3985 55.289C16.1813 55.289 13.679 52.7867 13.679 49.5695C13.679 46.4714 16.1813 43.8499 19.3985 43.8499C22.4966 43.8499 25.1181 46.4714 25.1181 49.5695C25.1181 52.7867 22.4966 55.289 19.3985 55.289ZM57.5289 55.289C54.3117 55.289 51.8094 52.7867 51.8094 49.5695C51.8094 46.4714 54.3117 43.8499 57.5289 43.8499C60.627 43.8499 63.2485 46.4714 63.2485 49.5695C63.2485 52.7867 60.627 55.289 57.5289 55.289ZM67.0615 30.5043H49.9028V17.1587H55.1458L67.0615 29.0744V30.5043Z" fill="url(#paint0_linear_85_1788)"/>
</g>
<g filter="url(#filter1_b_85_1788)">
<path d="M100.924 57.6137H98.6851V42.503C98.6851 40.824 97.8457 39.0052 96.5864 37.7459L82.735 23.8945C81.4757 22.6352 79.6569 21.7957 77.9779 21.7957H71.8217V15.0799C71.8217 11.4421 68.7436 8.36401 65.1058 8.36401H20.3334C16.5557 8.36401 13.6175 11.4421 13.6175 15.0799V59.8523C13.6175 63.63 16.5557 66.5682 20.3334 66.5682H22.572C22.572 73.9836 28.5883 79.9999 36.0037 79.9999C43.4192 79.9999 49.4355 73.9836 49.4355 66.5682H67.3444C67.3444 73.9836 73.3607 79.9999 80.7762 79.9999C88.1916 79.9999 94.2079 73.9836 94.2079 66.5682H100.924C102.043 66.5682 103.162 65.5888 103.162 64.3296V59.8523C103.162 58.733 102.043 57.6137 100.924 57.6137ZM36.0037 73.2841C32.226 73.2841 29.2878 70.3459 29.2878 66.5682C29.2878 62.9304 32.226 59.8523 36.0037 59.8523C39.6415 59.8523 42.7196 62.9304 42.7196 66.5682C42.7196 70.3459 39.6415 73.2841 36.0037 73.2841ZM80.7762 73.2841C76.9985 73.2841 74.0603 70.3459 74.0603 66.5682C74.0603 62.9304 76.9985 59.8523 80.7762 59.8523C84.4139 59.8523 87.492 62.9304 87.492 66.5682C87.492 70.3459 84.4139 73.2841 80.7762 73.2841ZM91.9693 44.182H71.8217V28.5116H77.9779L91.9693 42.503V44.182Z" fill="#FDD356" fill-opacity="0.35"/>
<path d="M98.1931 57.6137V58.1057H98.6851H100.924C101.323 58.1057 101.764 58.3105 102.115 58.6612C102.466 59.0119 102.67 59.4527 102.67 59.8523V64.3296C102.67 65.2975 101.791 66.0762 100.924 66.0762H94.2079H93.7159V66.5682C93.7159 73.7119 87.9199 79.5079 80.7762 79.5079C73.6325 79.5079 67.8364 73.7119 67.8364 66.5682V66.0762H67.3444H49.4355H48.9434V66.5682C48.9434 73.7119 43.1474 79.5079 36.0037 79.5079C28.86 79.5079 23.064 73.7119 23.064 66.5682V66.0762H22.572H20.3334C16.8274 66.0762 14.1095 63.3583 14.1095 59.8523V15.0799C14.1095 11.7071 16.8341 8.85602 20.3334 8.85602H65.1058C68.4718 8.85602 71.3297 11.7138 71.3297 15.0799V21.7957V22.2878H71.8217H77.9779C79.5075 22.2878 81.2058 23.0611 82.3871 24.2424L96.2385 38.0938C97.4198 39.275 98.1931 40.9734 98.1931 42.503V57.6137ZM91.9693 44.674H92.4613V44.182V42.503V42.2992L92.3172 42.1551L78.3258 28.1637L78.1817 28.0196H77.9779H71.8217H71.3297V28.5116V44.182V44.674H71.8217H91.9693ZM28.7958 66.5682C28.7958 70.6176 31.9543 73.7761 36.0037 73.7761C39.9065 73.7761 43.2116 70.6242 43.2116 66.5682C43.2116 62.6587 39.9132 59.3603 36.0037 59.3603C31.9477 59.3603 28.7958 62.6654 28.7958 66.5682ZM73.5683 66.5682C73.5683 70.6176 76.7268 73.7761 80.7762 73.7761C84.679 73.7761 87.984 70.6242 87.984 66.5682C87.984 62.6587 84.6857 59.3603 80.7762 59.3603C76.7201 59.3603 73.5683 62.6654 73.5683 66.5682Z" stroke="url(#paint1_linear_85_1788)" stroke-width="0.98401"/>
</g>
<defs>
<filter id="filter0_b_85_1788" x="-12.2557" y="-12.5891" width="101.439" height="86.1867" filterUnits="userSpaceOnUse" color-interpolation-filters="sRGB">
<feFlood flood-opacity="0" result="BackgroundImageFix"/>
<feGaussianBlur in="BackgroundImageFix" stdDeviation="6.29454"/>
<feComposite in2="SourceAlpha" operator="in" result="effect1_backgroundBlur_85_1788"/>
<feBlend mode="normal" in="SourceGraphic" in2="effect1_backgroundBlur_85_1788" result="shape"/>
</filter>
<filter id="filter1_b_85_1788" x="-9.99874" y="-15.2522" width="136.777" height="118.868" filterUnits="userSpaceOnUse" color-interpolation-filters="sRGB">
<feFlood flood-opacity="0" result="BackgroundImageFix"/>
<feGaussianBlur in="BackgroundImageFix" stdDeviation="11.8081"/>
<feComposite in2="SourceAlpha" operator="in" result="effect1_backgroundBlur_85_1788"/>
<feBlend mode="normal" in="SourceGraphic" in2="effect1_backgroundBlur_85_1788" result="shape"/>
</filter>
<linearGradient id="paint0_linear_85_1788" x1="44.078" y1="34.5897" x2="-16.4242" y2="71.3616" gradientUnits="userSpaceOnUse">
<stop stop-color="#FFDC73"/>
<stop offset="1" stop-color="#FDD356"/>
</linearGradient>
<linearGradient id="paint1_linear_85_1788" x1="27.8716" y1="16.7097" x2="70.4822" y2="82.6775" gradientUnits="userSpaceOnUse">
<stop stop-color="white" stop-opacity="0.25"/>
<stop offset="1" stop-color="white" stop-opacity="0"/>
</linearGradient>
</defs>
</svg>
