<svg width="244" height="156" viewBox="0 0 244 156" fill="none" xmlns="http://www.w3.org/2000/svg">
<path d="M15.5693 133.258L15.5752 133.266C25.2591 146.962 40.5138 153.7 61 153.7C81.4861 153.7 96.7408 146.962 106.425 133.266C116 119.724 120.7 101.181 120.7 77.8001C120.7 54.6802 115.931 36.2697 106.222 22.7296C96.5395 9.03957 81.3548 2.30005 61 2.30005C40.6429 2.30005 25.4571 9.04103 15.7752 22.7341C6.20201 36.2733 1.49997 54.6818 1.49997 77.8001C1.49997 101.177 6.13212 119.717 15.5693 133.258ZM75.2052 50.9521L75.2093 50.9622C77.6348 56.9621 78.9 65.8668 78.9 77.8001C78.9 90.002 77.6345 99.1108 75.2053 105.248L75.2022 105.256L75.1992 105.264C74.1055 108.119 72.409 110.19 70.1258 111.565C67.8226 112.953 64.8116 113.7 61 113.7C57.1894 113.7 54.1576 112.954 51.8169 111.561C49.4993 110.182 47.755 108.109 46.5978 105.255C44.2968 99.1081 43.1 89.9945 43.1 77.8001C43.1 65.8668 44.3652 56.9621 46.7906 50.9622L46.7907 50.9623L46.7947 50.9521C47.958 48.0131 49.6966 45.8865 51.9861 44.4775C54.2906 43.0594 57.2655 42.3 61 42.3C64.7345 42.3 67.7094 43.0594 70.0138 44.4775C72.3033 45.8865 74.0419 48.0131 75.2052 50.9521ZM232.845 42.9001H234.345V41.4001V6.80006V5.30006H232.845H137.245H135.745V6.80006V95.2001V96.7001H137.245H175.445H176.737L176.929 95.4226C177.272 93.1337 178.342 91.2667 180.191 89.7642L180.199 89.7579C182.14 88.1591 184.712 87.3001 188.045 87.3001C192.544 87.3001 195.757 88.6015 197.933 91.0064L197.945 91.02L197.958 91.0332C200.134 93.3236 201.345 96.8249 201.345 101.8C201.345 106.916 200.195 110.834 198.045 113.7C195.978 116.456 192.929 117.9 188.645 117.9C184.492 117.9 181.6 116.833 179.706 114.939C177.664 112.897 176.488 110.532 176.133 107.806L175.962 106.5H174.645H136.445H134.922L134.945 108.023C135.083 117.07 137.348 125.143 141.775 132.197C146.207 139.261 152.567 144.775 160.793 148.751L160.806 148.757L160.82 148.763C169.19 152.605 179.012 154.5 190.245 154.5C206.402 154.5 219.224 149.943 228.506 140.661L228.514 140.653C237.786 131.242 242.345 118.429 242.345 102.4C242.345 93.6831 240.778 85.6143 237.625 78.2123C234.445 70.7459 229.458 64.7199 222.689 60.1596C215.986 55.5538 207.673 53.3001 197.845 53.3001C192.361 53.3001 187.318 54.1229 182.733 55.7904C179.482 56.9723 176.677 58.4516 174.345 60.2448V42.9001H232.845Z" stroke="#E6E6E6" stroke-width="3"/>
</svg>
