<svg width="252" height="156" viewBox="0 0 252 156" fill="none" xmlns="http://www.w3.org/2000/svg">
<path d="M15.5694 133.258L15.5752 133.266C25.2591 146.962 40.5138 153.7 61 153.7C81.4862 153.7 96.7409 146.962 106.425 133.266C116 119.724 120.7 101.181 120.7 77.8001C120.7 54.6802 115.931 36.2697 106.222 22.7296C96.5395 9.03957 81.3548 2.30005 61 2.30005C40.643 2.30005 25.4572 9.04103 15.7752 22.7341C6.20204 36.2733 1.5 54.6818 1.5 77.8001C1.5 101.177 6.13215 119.717 15.5694 133.258ZM75.2053 50.9521L75.2093 50.9622C77.6348 56.9621 78.9 65.8668 78.9 77.8001C78.9 90.002 77.6346 99.1108 75.2053 105.248L75.2022 105.256L75.1992 105.264C74.1055 108.119 72.409 110.19 70.1258 111.565C67.8226 112.953 64.8116 113.7 61 113.7C57.1895 113.7 54.1577 112.954 51.8169 111.561C49.4993 110.182 47.755 108.109 46.5978 105.255C44.2969 99.1081 43.1 89.9945 43.1 77.8001C43.1 65.8668 44.3652 56.9621 46.7907 50.9622L46.7907 50.9623L46.7947 50.9521C47.9581 48.0131 49.6967 45.8865 51.9861 44.4775C54.2906 43.0594 57.2655 42.3 61 42.3C64.7345 42.3 67.7094 43.0594 70.0139 44.4775C72.3033 45.8865 74.0419 48.0131 75.2053 50.9521ZM127.345 129V130.5H128.845H192.145V153V154.5H193.645H233.245H234.745V153V130.5H248.645H250.145V129V95.0001V93.5001H248.645H234.745V9.00005V7.50005H233.245H190.245H189.465L189.017 8.13911L127.617 95.7391L127.345 96.1267V96.6001V129ZM195.145 93.5001H171.833L195.145 58.1941V93.5001Z" stroke="#E6E6E6" stroke-width="3"/>
</svg>
