<svg width="114" height="113" viewBox="0 0 114 113" fill="none" xmlns="http://www.w3.org/2000/svg">
<g filter="url(#filter0_b_105_50)">
<path d="M62.0164 23.4789L36.4116 30.3397C26.4001 33.0223 21.55 41.8553 24.3513 52.3098L30.8172 76.4408C33.6106 86.8658 42.2265 92.0874 52.2381 89.4048L77.8428 82.544C87.8543 79.8614 92.6757 71.0394 89.8823 60.6144L83.4164 36.4833C80.6151 26.0288 72.0279 20.7964 62.0164 23.4789Z" fill="url(#paint0_linear_105_50)"/>
</g>
<g filter="url(#filter1_f_105_50)">
<rect x="42.4667" y="79.3831" width="39.4564" height="40.5331" rx="14.7573" transform="rotate(-105 42.4667 79.3831)" fill="#FAD350" fill-opacity="0.5"/>
</g>
<path fill-rule="evenodd" clip-rule="evenodd" d="M51.5287 45.8852C51.9078 47.2998 53.369 48.1459 54.757 47.774C56.2336 47.3783 57.076 45.915 56.6969 44.5004C56.3092 43.0533 54.8488 42.2101 53.4313 42.59C51.9842 42.9777 51.141 44.4381 51.5287 45.8852ZM60.7637 70.1907C62.2108 69.8029 63.0539 68.3426 62.6741 66.925L59.1765 53.8716C58.7958 52.4511 57.3283 51.5814 55.8812 51.9691C54.4637 52.3489 53.6277 53.8359 54.0083 55.2564L57.5059 68.3098C57.8858 69.7274 59.3461 70.5705 60.7637 70.1907Z" fill="white"/>
<g filter="url(#filter2_b_105_50)">
<path d="M82.362 37.8513H55.854C45.4893 37.8513 38.5184 45.128 38.5184 55.9513V80.9336C38.5184 91.7264 45.4893 99 55.854 99H82.362C92.7267 99 99.6671 91.7264 99.6671 80.9336V55.9513C99.6671 45.128 92.7267 37.8513 82.362 37.8513Z" fill="#FDD356" fill-opacity="0.35"/>
<path d="M82.362 37.463H55.854C50.5774 37.463 46.1382 39.3174 43.019 42.574C39.9011 45.8291 38.13 50.4555 38.13 55.9513V80.9336C38.13 86.4145 39.9013 91.0325 43.0192 94.2829C46.1384 97.5347 50.5775 99.3883 55.854 99.3883H82.362C87.6386 99.3883 92.0702 97.5347 95.1819 94.2826C98.2921 91.032 100.055 86.414 100.055 80.9336V55.9513C100.055 50.456 98.2922 45.8296 95.1821 42.5743C92.0704 39.3175 87.6387 37.463 82.362 37.463Z" stroke="url(#paint1_linear_105_50)" stroke-width="0.776702" stroke-linecap="round" stroke-linejoin="round"/>
</g>
<g filter="url(#filter3_bd_105_50)">
<mask id="path-6-inside-1_105_50" fill="white">
<path fill-rule="evenodd" clip-rule="evenodd" d="M66.4324 56.7792C66.4324 58.2437 67.6248 59.4391 69.0618 59.4391C70.5905 59.4391 71.7829 58.2437 71.7829 56.7792C71.7829 55.281 70.5905 54.0886 69.1229 54.0886C67.6248 54.0886 66.4324 55.281 66.4324 56.7792ZM69.062 82.6455C70.5601 82.6455 71.7525 81.4531 71.7525 79.9855V66.4716C71.7525 65.001 70.5601 63.7811 69.062 63.7811C67.5944 63.7811 66.402 65.001 66.402 66.4716V79.9855C66.402 81.4531 67.5944 82.6455 69.062 82.6455Z"/>
</mask>
<path fill-rule="evenodd" clip-rule="evenodd" d="M66.4324 56.7792C66.4324 58.2437 67.6248 59.4391 69.0618 59.4391C70.5905 59.4391 71.7829 58.2437 71.7829 56.7792C71.7829 55.281 70.5905 54.0886 69.1229 54.0886C67.6248 54.0886 66.4324 55.281 66.4324 56.7792ZM69.062 82.6455C70.5601 82.6455 71.7525 81.4531 71.7525 79.9855V66.4716C71.7525 65.001 70.5601 63.7811 69.062 63.7811C67.5944 63.7811 66.402 65.001 66.402 66.4716V79.9855C66.402 81.4531 67.5944 82.6455 69.062 82.6455Z" fill="white"/>
<path d="M69.0618 59.1284C67.7989 59.1284 66.743 58.0747 66.743 56.7792H66.1217C66.1217 58.4127 67.4506 59.7498 69.0618 59.7498V59.1284ZM71.4722 56.7792C71.4722 58.0677 70.4233 59.1284 69.0618 59.1284V59.7498C70.7577 59.7498 72.0936 58.4196 72.0936 56.7792H71.4722ZM69.1229 54.3993C70.4166 54.3993 71.4722 55.4503 71.4722 56.7792H72.0936C72.0936 55.1118 70.7644 53.7779 69.1229 53.7779V54.3993ZM66.743 56.7792C66.743 55.4526 67.7963 54.3993 69.1229 54.3993V53.7779C67.4532 53.7779 66.1217 55.1094 66.1217 56.7792H66.743ZM71.4418 79.9855C71.4418 81.2792 70.3909 82.3348 69.062 82.3348V82.9561C70.7294 82.9561 72.0632 81.6269 72.0632 79.9855H71.4418ZM71.4418 66.4716V79.9855H72.0632V66.4716H71.4418ZM69.062 64.0918C70.3865 64.0918 71.4418 65.1705 71.4418 66.4716H72.0632C72.0632 64.8315 70.7338 63.4704 69.062 63.4704V64.0918ZM66.7127 66.4716C66.7127 65.1682 67.7704 64.0918 69.062 64.0918V63.4704C67.4185 63.4704 66.0913 64.8338 66.0913 66.4716H66.7127ZM66.7127 79.9855V66.4716H66.0913V79.9855H66.7127ZM69.062 82.3348C67.766 82.3348 66.7127 81.2815 66.7127 79.9855H66.0913C66.0913 81.6246 67.4228 82.9561 69.062 82.9561V82.3348Z" fill="url(#paint2_linear_105_50)" mask="url(#path-6-inside-1_105_50)"/>
</g>
<defs>
<filter id="filter0_b_105_50" x="13.7882" y="13.0055" width="86.6563" height="86.8738" filterUnits="userSpaceOnUse" color-interpolation-filters="sRGB">
<feFlood flood-opacity="0" result="BackgroundImageFix"/>
<feGaussianBlur in="BackgroundImageFix" stdDeviation="4.88898"/>
<feComposite in2="SourceAlpha" operator="in" result="effect1_backgroundBlur_105_50"/>
<feBlend mode="normal" in="SourceGraphic" in2="effect1_backgroundBlur_105_50" result="shape"/>
</filter>
<filter id="filter1_f_105_50" x="16.9268" y="15.4524" width="80.0198" height="79.2585" filterUnits="userSpaceOnUse" color-interpolation-filters="sRGB">
<feFlood flood-opacity="0" result="BackgroundImageFix"/>
<feBlend mode="normal" in="SourceGraphic" in2="BackgroundImageFix" result="shape"/>
<feGaussianBlur stdDeviation="9.32042" result="effect1_foregroundBlur_105_50"/>
</filter>
<filter id="filter2_b_105_50" x="19.1008" y="18.4339" width="99.9838" height="99.9836" filterUnits="userSpaceOnUse" color-interpolation-filters="sRGB">
<feFlood flood-opacity="0" result="BackgroundImageFix"/>
<feGaussianBlur in="BackgroundImageFix" stdDeviation="9.32042"/>
<feComposite in2="SourceAlpha" operator="in" result="effect1_backgroundBlur_105_50"/>
<feBlend mode="normal" in="SourceGraphic" in2="effect1_backgroundBlur_105_50" result="shape"/>
</filter>
<filter id="filter3_bd_105_50" x="54.7515" y="42.4381" width="28.6819" height="51.8579" filterUnits="userSpaceOnUse" color-interpolation-filters="sRGB">
<feFlood flood-opacity="0" result="BackgroundImageFix"/>
<feGaussianBlur in="BackgroundImageFix" stdDeviation="5.82526"/>
<feComposite in2="SourceAlpha" operator="in" result="effect1_backgroundBlur_105_50"/>
<feColorMatrix in="SourceAlpha" type="matrix" values="0 0 0 0 0 0 0 0 0 0 0 0 0 0 0 0 0 0 127 0" result="hardAlpha"/>
<feOffset dx="3.88351" dy="3.88351"/>
<feGaussianBlur stdDeviation="3.88351"/>
<feColorMatrix type="matrix" values="0 0 0 0 0.980392 0 0 0 0 0.827451 0 0 0 0 0.313726 0 0 0 0.5 0"/>
<feBlend mode="normal" in2="effect1_backgroundBlur_105_50" result="effect2_dropShadow_105_50"/>
<feBlend mode="normal" in="SourceGraphic" in2="effect2_dropShadow_105_50" result="shape"/>
</filter>
<linearGradient id="paint0_linear_105_50" x1="65.2247" y1="60.631" x2="-2.48264" y2="119.343" gradientUnits="userSpaceOnUse">
<stop stop-color="#FFDC73"/>
<stop offset="1" stop-color="#FDD356"/>
</linearGradient>
<linearGradient id="paint1_linear_105_50" x1="48.2523" y1="44.9752" x2="87.2586" y2="93.2855" gradientUnits="userSpaceOnUse">
<stop stop-color="white" stop-opacity="0.25"/>
<stop offset="1" stop-color="white" stop-opacity="0"/>
</linearGradient>
<linearGradient id="paint2_linear_105_50" x1="67.2586" y1="57.4155" x2="75.5072" y2="59.3406" gradientUnits="userSpaceOnUse">
<stop stop-color="white" stop-opacity="0.25"/>
<stop offset="1" stop-color="white" stop-opacity="0"/>
</linearGradient>
</defs>
</svg>
