<svg width="141" height="80" viewBox="0 0 141 80" fill="none" xmlns="http://www.w3.org/2000/svg">
<path d="M49.0434 9.72133C51.7377 9.72133 53.9145 7.54922 53.9145 4.86067C53.9145 2.17211 51.7377 0 49.0434 0H29.5594C26.8651 0 24.6883 2.17211 24.6883 4.86067C24.6883 7.54922 26.8651 9.72133 29.5594 9.72133H34.4304V14.582H7.63978C3.60597 14.582 0.333252 17.8478 0.333252 21.873V31.7158C0.333252 34.6019 2.03811 37.2145 4.6715 38.3841L14.9463 42.941V46.1763C14.9463 50.2016 18.219 53.4673 22.2528 53.4673H61.6929C64.4937 53.4673 67.1423 52.2674 68.9994 50.1712L96.7642 18.7895C98.6365 16.6782 96.7185 13.4124 93.9634 14.0048L68.5275 19.4427L60.8404 15.6149C59.4857 14.9466 57.9939 14.582 56.487 14.582H44.1724V9.72133H49.0434ZM14.9463 21.873V34.9512L7.63978 31.7158V21.873H14.9463Z" fill="url(#paint0_linear_134_436)"/>
<g filter="url(#filter0_b_134_436)">
<path d="M76.1395 22.1107C79.708 22.1107 82.5911 19.2363 82.5911 15.6785C82.5911 12.1207 79.708 9.24634 76.1395 9.24634H50.3331C46.7646 9.24634 43.8815 12.1207 43.8815 15.6785C43.8815 19.2363 46.7646 22.1107 50.3331 22.1107H56.7847V28.5428H21.3009C15.9582 28.5428 11.6235 32.8644 11.6235 38.1911V51.2162C11.6235 55.0353 13.8816 58.4926 17.3695 60.0403L30.9783 66.0705V70.3519C30.9783 75.6785 35.313 80.0001 40.6557 80.0001H92.8935C96.6031 80.0001 100.111 78.4122 102.571 75.6383L139.345 34.1107C141.825 31.3167 139.284 26.9951 135.635 27.779L101.946 34.975L91.7644 29.9097C89.9701 29.0252 87.9943 28.5428 85.9983 28.5428H69.6879V22.1107H76.1395ZM30.9783 38.1911V55.4976L21.3009 51.2162V38.1911H30.9783Z" fill="#FDD356" fill-opacity="0.35"/>
<path d="M56.8852 22.1107V22.0102H56.7847H50.3331C46.8198 22.0102 43.982 19.1805 43.982 15.6785C43.982 12.1765 46.8198 9.34684 50.3331 9.34684H76.1395C79.6528 9.34684 82.4906 12.1765 82.4906 15.6785C82.4906 19.1805 79.6528 22.0102 76.1395 22.0102H69.6879H69.5874V22.1107V28.5428V28.6433H69.6879H85.9983C87.978 28.6433 89.9386 29.1218 91.7198 29.9997C91.7198 29.9997 91.7199 29.9998 91.72 29.9998L101.901 35.065L101.933 35.0806L101.967 35.0733L135.656 27.8773L135.656 27.8773C139.212 27.1135 141.684 31.3233 139.27 34.0439L139.27 34.044L102.496 75.5716C100.055 78.3241 96.5742 79.8996 92.8935 79.8996H40.6557C35.3682 79.8996 31.0788 75.6227 31.0788 70.3519V66.0705V66.0051L31.019 65.9786L17.4103 59.9484C13.9585 58.4168 11.724 54.9954 11.724 51.2162V38.1911C11.724 32.9202 16.0134 28.6433 21.3009 28.6433H56.7847H56.8852V28.5428V22.1107ZM31.0788 38.1911V38.0906H30.9783H21.3009H21.2004V38.1911V51.2162V51.2816L21.2603 51.3081L30.9377 55.5895L31.0788 55.652V55.4976V38.1911Z" stroke="url(#paint1_linear_134_436)" stroke-width="0.201005"/>
</g>
<path d="M63.3333 54.6661C63.3333 58.7155 66.4666 62 70.3333 62C74.1999 62 77.3333 58.7172 77.3333 54.6661C77.3333 50.615 70.3333 40 70.3333 40C70.3333 40 63.3333 50.6167 63.3333 54.6661Z" fill="white"/>
<defs>
<filter id="filter0_b_134_436" x="-10.2776" y="-12.6548" width="172.512" height="114.556" filterUnits="userSpaceOnUse" color-interpolation-filters="sRGB">
<feFlood flood-opacity="0" result="BackgroundImageFix"/>
<feGaussianBlur in="BackgroundImageFix" stdDeviation="10.9506"/>
<feComposite in2="SourceAlpha" operator="in" result="effect1_backgroundBlur_134_436"/>
<feBlend mode="normal" in="SourceGraphic" in2="effect1_backgroundBlur_134_436" result="shape"/>
</filter>
<linearGradient id="paint0_linear_134_436" x1="56.076" y1="30.3141" x2="-3.20458" y2="82.701" gradientUnits="userSpaceOnUse">
<stop stop-color="#FFDC73"/>
<stop offset="1" stop-color="#FDD356"/>
<stop offset="1" stop-color="#FDD356"/>
</linearGradient>
<linearGradient id="paint1_linear_134_436" x1="32.112" y1="17.4892" x2="66.3517" y2="94.6321" gradientUnits="userSpaceOnUse">
<stop stop-color="white" stop-opacity="0.25"/>
<stop offset="1" stop-color="white" stop-opacity="0"/>
</linearGradient>
</defs>
</svg>
