<svg width="188" height="156" viewBox="0 0 188 156" fill="none" xmlns="http://www.w3.org/2000/svg">
<path d="M16.3694 133.258L16.3752 133.266C26.0591 146.962 41.3138 153.7 61.8 153.7C82.2861 153.7 97.5409 146.962 107.225 133.266C116.8 119.724 121.5 101.181 121.5 77.8001C121.5 54.6802 116.731 36.2697 107.022 22.7296C97.3395 9.03957 82.1548 2.30005 61.8 2.30005C41.4429 2.30005 26.2572 9.04103 16.5752 22.7341C7.00202 36.2733 2.29999 54.6818 2.29999 77.8001C2.29999 101.177 6.93214 119.717 16.3694 133.258ZM76.0052 50.9521L76.0093 50.9622C78.4348 56.9621 79.7 65.8668 79.7 77.8001C79.7 90.002 78.4346 99.1108 76.0053 105.248L76.0022 105.256L75.9992 105.264C74.9055 108.119 73.209 110.19 70.9258 111.565C68.6226 112.953 65.6116 113.7 61.8 113.7C57.9894 113.7 54.9577 112.954 52.6169 111.561C50.2993 110.182 48.555 108.109 47.3978 105.255C45.0968 99.1081 43.9 89.9945 43.9 77.8001C43.9 65.8668 45.1652 56.9621 47.5907 50.9622L47.5907 50.9623L47.5947 50.9521C48.7581 48.0131 50.4967 45.8865 52.7861 44.4775C55.0906 43.0594 58.0655 42.3 61.8 42.3C65.5345 42.3 68.5094 43.0594 70.8138 44.4775C73.1033 45.8865 74.8419 48.0131 76.0052 50.9521ZM121.545 43.6V45.1H123.045H142.145V153V154.5H143.645H184.645H186.145V153V6.80006V5.30006H184.645H123.045H121.545V6.80006V43.6Z" stroke="#E6E6E6" stroke-width="3"/>
</svg>
