<svg width="83" height="85" viewBox="0 0 83 85" fill="none" xmlns="http://www.w3.org/2000/svg">
<path fill-rule="evenodd" clip-rule="evenodd" d="M7.00003 51.0198L7 51.0197L7 18.6355C7 10.5518 13.4869 4 21.4906 4L47.18 4C55.571 4 62.4129 10.8777 62.4129 19.3526V22.1731L62.4129 22.1732V54.5574C62.4129 62.6411 55.926 69.1929 47.9223 69.1929H22.2329C13.8419 69.1929 7.00003 62.3152 7.00003 53.8403V51.0198Z" fill="url(#paint0_linear_85_1739)"/>
<g opacity="0.5" filter="url(#filter0_f_85_1739)">
<rect x="17.4755" y="50.8723" width="33.8441" height="29.0092" rx="4.02906" transform="rotate(-90 17.4755 50.8723)" fill="#EEDD42"/>
</g>
<g filter="url(#filter1_b_85_1739)">
<path d="M33.6699 18.8083H57.634L74.5276 36.9803V69.3645C74.5276 77.4482 68.0407 84 60.037 84H34.3476C25.9566 84 19.1147 77.1223 19.1147 68.6474L19.1147 33.5091C19.1147 25.4253 25.6338 18.8083 33.6699 18.8083Z" fill="#FDD356" fill-opacity="0.35"/>
<path d="M57.9291 18.534C57.8529 18.452 57.746 18.4054 57.634 18.4054L33.6699 18.4054C25.407 18.4054 18.7118 25.2072 18.7118 33.5091L18.7118 68.6474C18.7118 77.3421 25.7314 84.4029 34.3476 84.4029H60.037C68.267 84.4029 74.9305 77.667 74.9305 69.3645V36.9803C74.9305 36.8785 74.892 36.7805 74.8227 36.7059L57.9291 18.534Z" stroke="url(#paint1_linear_85_1739)" stroke-width="0.805811" stroke-linecap="round" stroke-linejoin="round"/>
</g>
<mask id="path-5-inside-1_85_1739" fill="white">
<path fill-rule="evenodd" clip-rule="evenodd" d="M46.5766 44.3816H35.6683C34.3451 44.3816 33.2479 45.4899 33.2479 46.8263C33.2479 48.1627 34.3451 49.2384 35.6683 49.2384H46.5766C47.8998 49.2384 48.9971 48.1627 48.9971 46.8263C48.9971 45.4899 47.8998 44.3816 46.5766 44.3816ZM35.6684 65.5354H53.225C54.5482 65.5354 55.6455 64.4271 55.6455 63.0907C55.6455 61.7543 54.5482 60.6786 53.225 60.6786H35.6684C34.3452 60.6786 33.248 61.7543 33.248 63.0907C33.248 64.4271 34.3452 65.5354 35.6684 65.5354Z"/>
</mask>
<path fill-rule="evenodd" clip-rule="evenodd" d="M46.5766 44.3816H35.6683C34.3451 44.3816 33.2479 45.4899 33.2479 46.8263C33.2479 48.1627 34.3451 49.2384 35.6683 49.2384H46.5766C47.8998 49.2384 48.9971 48.1627 48.9971 46.8263C48.9971 45.4899 47.8998 44.3816 46.5766 44.3816ZM35.6684 65.5354H53.225C54.5482 65.5354 55.6455 64.4271 55.6455 63.0907C55.6455 61.7543 54.5482 60.6786 53.225 60.6786H35.6684C34.3452 60.6786 33.248 61.7543 33.248 63.0907C33.248 64.4271 34.3452 65.5354 35.6684 65.5354Z" fill="white"/>
<path d="M35.6683 44.7039H46.5766V44.0593H35.6683V44.7039ZM33.5702 46.8263C33.5702 45.6648 34.5262 44.7039 35.6683 44.7039V44.0593C34.1641 44.0593 32.9255 45.3149 32.9255 46.8263H33.5702ZM35.6683 48.916C34.5206 48.916 33.5702 47.9821 33.5702 46.8263H32.9255C32.9255 48.3433 34.1697 49.5607 35.6683 49.5607V48.916ZM46.5766 48.916H35.6683V49.5607H46.5766V48.916ZM48.6748 46.8263C48.6748 47.9821 47.7244 48.916 46.5766 48.916V49.5607C48.0753 49.5607 49.3195 48.3433 49.3195 46.8263H48.6748ZM46.5766 44.7039C47.7188 44.7039 48.6748 45.6648 48.6748 46.8263H49.3195C49.3195 45.3149 48.0809 44.0593 46.5766 44.0593V44.7039ZM53.225 65.2131H35.6684V65.8577H53.225V65.2131ZM55.3232 63.0907C55.3232 64.2521 54.3672 65.2131 53.225 65.2131V65.8577C54.7292 65.8577 55.9678 64.6021 55.9678 63.0907H55.3232ZM53.225 61.0009C54.3728 61.0009 55.3232 61.9349 55.3232 63.0907H55.9678C55.9678 61.5737 54.7236 60.3563 53.225 60.3563V61.0009ZM35.6684 61.0009H53.225V60.3563H35.6684V61.0009ZM33.5703 63.0907C33.5703 61.9349 34.5206 61.0009 35.6684 61.0009V60.3563C34.1698 60.3563 32.9256 61.5737 32.9256 63.0907H33.5703ZM35.6684 65.2131C34.5263 65.2131 33.5703 64.2521 33.5703 63.0907H32.9256C32.9256 64.6021 34.1642 65.8577 35.6684 65.8577V65.2131Z" fill="url(#paint2_linear_85_1739)" mask="url(#path-5-inside-1_85_1739)"/>
<g filter="url(#filter2_bd_85_1739)">
<mask id="path-7-inside-2_85_1739" fill="white">
<path d="M60.6219 39.5831C62.8713 39.6059 65.9986 39.6157 68.6514 39.6059C70.0101 39.6026 70.7007 37.9631 69.7584 36.9754C66.3503 33.3964 60.2539 26.9913 56.7652 23.3275C55.8002 22.3138 54.1124 23.0114 54.1124 24.4162V33.0085C54.1124 36.6136 57.0524 39.5831 60.6219 39.5831Z"/>
</mask>
<path d="M60.6219 39.5831C62.8713 39.6059 65.9986 39.6157 68.6514 39.6059C70.0101 39.6026 70.7007 37.9631 69.7584 36.9754C66.3503 33.3964 60.2539 26.9913 56.7652 23.3275C55.8002 22.3138 54.1124 23.0114 54.1124 24.4162V33.0085C54.1124 36.6136 57.0524 39.5831 60.6219 39.5831Z" fill="url(#paint3_linear_85_1739)"/>
<path d="M68.6514 39.6059L68.6506 39.2836L68.6502 39.2836L68.6514 39.6059ZM69.7584 36.9754L69.5249 37.1977L69.5252 37.1979L69.7584 36.9754ZM56.7652 23.3275L56.5318 23.5498L56.5318 23.5498L56.7652 23.3275ZM60.6186 39.9054C62.8696 39.9282 65.9984 39.938 68.6526 39.9282L68.6502 39.2836C65.9987 39.2934 62.8729 39.2836 60.6251 39.2608L60.6186 39.9054ZM68.6522 39.9282C70.2992 39.9243 71.1258 37.9417 69.9916 36.7529L69.5252 37.1979C70.2757 37.9845 69.721 39.281 68.6506 39.2836L68.6522 39.9282ZM69.9918 36.7531C66.5814 33.1717 60.4898 26.7716 56.9986 23.1053L56.5318 23.5498C60.0181 27.2111 66.1192 33.6211 69.5249 37.1977L69.9918 36.7531ZM56.9987 23.1053C55.8251 21.8724 53.79 22.732 53.79 24.4162H54.4347C54.4347 23.2908 55.7754 22.7552 56.5318 23.5498L56.9987 23.1053ZM53.79 24.4162V33.0085H54.4347V24.4162H53.79ZM53.79 33.0085C53.79 36.7886 56.8714 39.9054 60.6219 39.9054V39.2608C57.2335 39.2608 54.4347 36.4386 54.4347 33.0085H53.79Z" fill="url(#paint4_linear_85_1739)" mask="url(#path-7-inside-2_85_1739)"/>
</g>
<defs>
<filter id="filter0_f_85_1739" x="0.553492" y="0.106287" width="62.8533" height="67.6881" filterUnits="userSpaceOnUse" color-interpolation-filters="sRGB">
<feFlood flood-opacity="0" result="BackgroundImageFix"/>
<feBlend mode="normal" in="SourceGraphic" in2="BackgroundImageFix" result="shape"/>
<feGaussianBlur stdDeviation="8.46102" result="effect1_foregroundBlur_85_1739"/>
</filter>
<filter id="filter1_b_85_1739" x="-1.03057" y="-1.33702" width="95.7034" height="105.482" filterUnits="userSpaceOnUse" color-interpolation-filters="sRGB">
<feFlood flood-opacity="0" result="BackgroundImageFix"/>
<feGaussianBlur in="BackgroundImageFix" stdDeviation="9.66973"/>
<feComposite in2="SourceAlpha" operator="in" result="effect1_backgroundBlur_85_1739"/>
<feBlend mode="normal" in="SourceGraphic" in2="effect1_backgroundBlur_85_1739" result="shape"/>
</filter>
<filter id="filter2_bd_85_1739" x="42.0252" y="10.7598" width="40.255" height="40.937" filterUnits="userSpaceOnUse" color-interpolation-filters="sRGB">
<feFlood flood-opacity="0" result="BackgroundImageFix"/>
<feGaussianBlur in="BackgroundImageFix" stdDeviation="6.04358"/>
<feComposite in2="SourceAlpha" operator="in" result="effect1_backgroundBlur_85_1739"/>
<feColorMatrix in="SourceAlpha" type="matrix" values="0 0 0 0 0 0 0 0 0 0 0 0 0 0 0 0 0 0 127 0" result="hardAlpha"/>
<feOffset dx="4.02906" dy="4.02906"/>
<feGaussianBlur stdDeviation="4.02906"/>
<feColorMatrix type="matrix" values="0 0 0 0 0.980392 0 0 0 0 0.827451 0 0 0 0 0.313726 0 0 0 0.25 0"/>
<feBlend mode="normal" in2="effect1_backgroundBlur_85_1739" result="effect2_dropShadow_85_1739"/>
<feBlend mode="normal" in="SourceGraphic" in2="effect2_dropShadow_85_1739" result="shape"/>
</filter>
<linearGradient id="paint0_linear_85_1739" x1="38.7859" y1="40.962" x2="-12.6334" y2="62.2127" gradientUnits="userSpaceOnUse">
<stop stop-color="#FFDC73"/>
<stop offset="1" stop-color="#FDD356"/>
</linearGradient>
<linearGradient id="paint1_linear_85_1739" x1="27.9355" y1="26.4033" x2="70.4199" y2="71.1285" gradientUnits="userSpaceOnUse">
<stop stop-color="white" stop-opacity="0.25"/>
<stop offset="1" stop-color="white" stop-opacity="0"/>
</linearGradient>
<linearGradient id="paint2_linear_85_1739" x1="36.8132" y1="46.846" x2="50.1249" y2="64.3024" gradientUnits="userSpaceOnUse">
<stop stop-color="white" stop-opacity="0.25"/>
<stop offset="1" stop-color="white" stop-opacity="0"/>
</linearGradient>
<linearGradient id="paint3_linear_85_1739" x1="69.0529" y1="25.8739" x2="51.1391" y2="26.4342" gradientUnits="userSpaceOnUse">
<stop stop-color="white"/>
<stop offset="1" stop-color="white" stop-opacity="0.2"/>
</linearGradient>
<linearGradient id="paint4_linear_85_1739" x1="56.6721" y1="24.7998" x2="67.4501" y2="37.6053" gradientUnits="userSpaceOnUse">
<stop stop-color="white" stop-opacity="0.25"/>
<stop offset="1" stop-color="white" stop-opacity="0"/>
</linearGradient>
</defs>
</svg>
