<svg width="88" height="81" viewBox="0 0 88 81" fill="none" xmlns="http://www.w3.org/2000/svg">
<g filter="url(#filter0_b_105_36)">
<path d="M56.6685 37.11C56.0914 36.21 55.2713 35.31 54.2082 34.74C53.3577 34.32 52.811 33.63 52.325 32.82C50.7759 30.24 51.6872 26.85 54.269 25.32C57.3064 23.61 58.2783 19.8 56.5166 16.83L54.4816 13.29C52.7503 10.32 48.9535 9.27 45.9465 11.01C43.2736 12.45 39.8413 11.49 38.2922 8.94C37.8063 8.1 37.5329 7.2 37.5936 6.3C37.6848 5.13 37.3203 4.02 36.7736 3.12C35.6497 1.26 33.6147 0 31.367 0H27.0843C24.867 0.06 22.8319 1.26 21.7081 3.12C21.131 4.02 20.7968 5.13 20.8576 6.3C20.9183 7.2 20.645 8.1 20.159 8.94C18.6099 11.49 15.1777 12.45 12.5351 11.01C9.49773 9.27 5.73136 10.32 3.96967 13.29L1.93461 16.83C0.203299 19.8 1.17527 23.61 4.18229 25.32C6.76408 26.85 7.67529 30.24 6.1566 32.82C5.64024 33.63 5.09351 34.32 4.24304 34.74C3.21032 35.31 2.2991 36.21 1.81312 37.11C0.689282 38.97 0.75003 41.31 1.87387 43.26L3.96967 46.86C5.09351 48.78 7.18931 49.98 9.37624 49.98C10.409 49.98 11.6239 49.68 12.5959 49.08C13.3552 48.57 14.2664 48.39 15.2688 48.39C18.2758 48.39 20.7968 50.88 20.8576 53.85C20.8576 57.3 23.652 60 27.1754 60H31.3062C34.7992 60 37.5936 57.3 37.5936 53.85C37.6848 50.88 40.2058 48.39 43.2128 48.39C44.1848 48.39 45.096 48.57 45.8857 49.08C46.8577 49.68 48.0423 49.98 49.1054 49.98C51.2619 49.98 53.3577 48.78 54.4816 46.86L56.6077 43.26C57.7012 41.25 57.7923 38.97 56.6685 37.11Z" fill="url(#paint0_linear_105_36)"/>
</g>
<g opacity="0.5" filter="url(#filter1_f_105_36)">
<path d="M43.5727 33.8285C43.2752 33.3653 42.8523 32.902 42.3041 32.6087C41.8656 32.3925 41.5837 32.0373 41.3331 31.6204C40.5344 30.2925 41.0042 28.5476 42.3355 27.7601C43.9016 26.88 44.4028 24.919 43.4944 23.3903L42.4451 21.5682C41.5524 20.0395 39.5947 19.4991 38.0442 20.3947C36.666 21.1359 34.8962 20.6418 34.0975 19.3293C33.8469 18.8969 33.7059 18.4337 33.7373 17.9704C33.7842 17.3682 33.5963 16.7969 33.3144 16.3337C32.7349 15.3763 31.6856 14.7278 30.5266 14.7278H28.3183C27.1751 14.7587 26.1257 15.3763 25.5462 16.3337C25.2487 16.7969 25.0764 17.3682 25.1077 17.9704C25.139 18.4337 24.9981 18.8969 24.7475 19.3293C23.9488 20.6418 22.179 21.1359 20.8165 20.3947C19.2503 19.4991 17.3083 20.0395 16.3999 21.5682L15.3506 23.3903C14.4579 24.919 14.959 26.88 16.5095 27.7601C17.8408 28.5476 18.3106 30.2925 17.5275 31.6204C17.2613 32.0373 16.9794 32.3925 16.5408 32.6087C16.0083 32.902 15.5385 33.3653 15.2879 33.8285C14.7084 34.7859 14.7398 35.9903 15.3192 36.994L16.3999 38.8469C16.9794 39.8351 18.06 40.4528 19.1876 40.4528C19.7201 40.4528 20.3466 40.2984 20.8478 39.9895C21.2393 39.727 21.7092 39.6344 22.226 39.6344C23.7765 39.6344 25.0764 40.916 25.1077 42.4447C25.1077 44.2204 26.5486 45.6101 28.3653 45.6101H30.4953C32.2964 45.6101 33.7373 44.2204 33.7373 42.4447C33.7842 40.916 35.0841 39.6344 36.6346 39.6344C37.1358 39.6344 37.6057 39.727 38.0129 39.9895C38.514 40.2984 39.1248 40.4528 39.673 40.4528C40.785 40.4528 41.8656 39.8351 42.4451 38.8469L43.5414 36.994C44.1052 35.9594 44.1522 34.7859 43.5727 33.8285Z" fill="#D9C72B"/>
</g>
<g filter="url(#filter2_b_105_36)">
<mask id="path-3-outside-1_105_36" maskUnits="userSpaceOnUse" x="16.7647" y="6.94116" width="71" height="74" fill="black">
<rect fill="white" x="16.7647" y="6.94116" width="71" height="74"/>
<path d="M85.2483 52.5095C84.5487 51.4287 83.5545 50.3478 82.2658 49.6632C81.2348 49.1588 80.5721 48.3301 79.9829 47.3573C78.1051 44.2588 79.2097 40.1875 82.3394 38.35C86.0215 36.2963 87.1998 31.7206 85.0642 28.1537L82.5972 23.9022C80.4984 20.3353 75.8959 19.0743 72.2506 21.164C69.0104 22.8934 64.8497 21.7404 62.9719 18.6779C62.3827 17.6691 62.0513 16.5882 62.125 15.5073C62.2354 14.1022 61.7936 12.7691 61.1308 11.6882C59.7685 9.4544 57.3015 7.94116 54.5768 7.94116H49.3851C46.6972 8.01322 44.2302 9.4544 42.8678 11.6882C42.1683 12.7691 41.7632 14.1022 41.8369 15.5073C41.9105 16.5882 41.5791 17.6691 40.99 18.6779C39.1122 21.7404 34.9514 22.8934 31.748 21.164C28.066 19.0743 23.5003 20.3353 21.3647 23.9022L18.8977 28.1537C16.7989 31.7206 17.9772 36.2963 21.6224 38.35C24.7521 40.1875 25.8568 44.2588 24.0157 47.3573C23.3898 48.3301 22.727 49.1588 21.696 49.6632C20.4441 50.3478 19.3395 51.4287 18.7504 52.5095C17.388 54.7434 17.4617 57.5537 18.824 59.8956L21.3647 64.2191C22.727 66.525 25.2676 67.9662 27.9187 67.9662C29.1706 67.9662 30.6434 67.6059 31.8217 66.8853C32.7422 66.2728 33.8468 66.0566 35.0619 66.0566C38.7071 66.0566 41.7632 69.047 41.8369 72.614C41.8369 76.7573 45.2244 80 49.4955 80H54.5031C58.7375 80 62.125 76.7573 62.125 72.614C62.2354 69.047 65.2915 66.0566 68.9368 66.0566C70.115 66.0566 71.2197 66.2728 72.177 66.8853C73.3552 67.6059 74.7912 67.9662 76.08 67.9662C78.6942 67.9662 81.2348 66.525 82.5972 64.2191L85.1746 59.8956C86.5002 57.4816 86.6106 54.7434 85.2483 52.5095Z"/>
</mask>
<path d="M85.2483 52.5095C84.5487 51.4287 83.5545 50.3478 82.2658 49.6632C81.2348 49.1588 80.5721 48.3301 79.9829 47.3573C78.1051 44.2588 79.2097 40.1875 82.3394 38.35C86.0215 36.2963 87.1998 31.7206 85.0642 28.1537L82.5972 23.9022C80.4984 20.3353 75.8959 19.0743 72.2506 21.164C69.0104 22.8934 64.8497 21.7404 62.9719 18.6779C62.3827 17.6691 62.0513 16.5882 62.125 15.5073C62.2354 14.1022 61.7936 12.7691 61.1308 11.6882C59.7685 9.4544 57.3015 7.94116 54.5768 7.94116H49.3851C46.6972 8.01322 44.2302 9.4544 42.8678 11.6882C42.1683 12.7691 41.7632 14.1022 41.8369 15.5073C41.9105 16.5882 41.5791 17.6691 40.99 18.6779C39.1122 21.7404 34.9514 22.8934 31.748 21.164C28.066 19.0743 23.5003 20.3353 21.3647 23.9022L18.8977 28.1537C16.7989 31.7206 17.9772 36.2963 21.6224 38.35C24.7521 40.1875 25.8568 44.2588 24.0157 47.3573C23.3898 48.3301 22.727 49.1588 21.696 49.6632C20.4441 50.3478 19.3395 51.4287 18.7504 52.5095C17.388 54.7434 17.4617 57.5537 18.824 59.8956L21.3647 64.2191C22.727 66.525 25.2676 67.9662 27.9187 67.9662C29.1706 67.9662 30.6434 67.6059 31.8217 66.8853C32.7422 66.2728 33.8468 66.0566 35.0619 66.0566C38.7071 66.0566 41.7632 69.047 41.8369 72.614C41.8369 76.7573 45.2244 80 49.4955 80H54.5031C58.7375 80 62.125 76.7573 62.125 72.614C62.2354 69.047 65.2915 66.0566 68.9368 66.0566C70.115 66.0566 71.2197 66.2728 72.177 66.8853C73.3552 67.6059 74.7912 67.9662 76.08 67.9662C78.6942 67.9662 81.2348 66.525 82.5972 64.2191L85.1746 59.8956C86.5002 57.4816 86.6106 54.7434 85.2483 52.5095Z" fill="#FDD356" fill-opacity="0.35"/>
<path d="M84.5075 52.989C84.7723 53.3981 85.3186 53.5151 85.7277 53.2503C86.1368 52.9855 86.2538 52.4392 85.989 52.0301L84.5075 52.989ZM82.2658 49.6632L82.6797 48.884C82.6711 48.8794 82.6624 48.8749 82.6536 48.8706L82.2658 49.6632ZM79.9829 47.3573L80.7377 46.9003L80.7375 46.9L79.9829 47.3573ZM82.3394 38.35L81.9096 37.5794C81.904 37.5826 81.8983 37.5858 81.8927 37.5891L82.3394 38.35ZM85.0642 28.1537L84.3009 28.5965L84.3071 28.6069L85.0642 28.1537ZM82.5972 23.9022L83.3604 23.4593L83.3577 23.4547L82.5972 23.9022ZM72.2506 21.164L72.6661 21.9424C72.6739 21.9382 72.6817 21.9339 72.6895 21.9294L72.2506 21.164ZM62.9719 18.6779L62.2099 19.1229C62.2131 19.1283 62.2163 19.1338 62.2196 19.1392L62.9719 18.6779ZM62.125 15.5073L61.2453 15.4382L61.2447 15.4474L62.125 15.5073ZM61.1308 11.6882L60.3775 12.1476L60.3786 12.1495L61.1308 11.6882ZM49.3851 7.94116V7.05881C49.3772 7.05881 49.3693 7.05891 49.3614 7.05913L49.3851 7.94116ZM42.8678 11.6882L43.6086 12.1677C43.6129 12.161 43.6171 12.1544 43.6212 12.1476L42.8678 11.6882ZM41.8369 15.5073L40.9556 15.5535L40.9566 15.5673L41.8369 15.5073ZM40.99 18.6779L41.7422 19.1392C41.7455 19.1338 41.7488 19.1283 41.7519 19.1229L40.99 18.6779ZM31.748 21.164L31.3125 21.9313C31.3179 21.9344 31.3234 21.9374 31.3289 21.9404L31.748 21.164ZM21.3647 23.9022L20.6076 23.4489L20.6015 23.4593L21.3647 23.9022ZM18.8977 28.1537L19.6582 28.6011L19.6609 28.5965L18.8977 28.1537ZM21.6224 38.35L22.0691 37.5891C22.0646 37.5864 22.0601 37.5838 22.0555 37.5812L21.6224 38.35ZM24.0157 47.3573L24.7578 47.8348C24.7634 47.826 24.7689 47.8171 24.7743 47.808L24.0157 47.3573ZM21.696 49.6632L21.3083 48.8706C21.2963 48.8765 21.2844 48.8826 21.2727 48.889L21.696 49.6632ZM18.7504 52.5095L19.5037 52.969C19.5112 52.9568 19.5183 52.9444 19.5252 52.9318L18.7504 52.5095ZM18.824 59.8956L18.0613 60.3393L18.0633 60.3426L18.824 59.8956ZM21.3647 64.2191L20.6039 64.6661L20.605 64.6679L21.3647 64.2191ZM31.8217 66.8853L32.282 67.638C32.2916 67.6322 32.3011 67.6261 32.3105 67.6199L31.8217 66.8853ZM41.8369 72.614H42.7192C42.7192 72.6079 42.7192 72.6018 42.719 72.5957L41.8369 72.614ZM62.125 72.614L61.243 72.5866C61.2428 72.5957 61.2426 72.6049 61.2426 72.614H62.125ZM72.177 66.8853L71.7015 67.6285C71.7065 67.6317 71.7115 67.6349 71.7166 67.638L72.177 66.8853ZM82.5972 64.2191L81.8393 63.7673L81.8375 63.7703L82.5972 64.2191ZM85.1746 59.8956L85.9325 60.3474C85.9379 60.3384 85.943 60.3294 85.9481 60.3203L85.1746 59.8956ZM86.0016 52.0501C85.7478 51.6341 85.2049 51.5025 84.7888 51.7562C84.3728 52.01 84.2412 52.5529 84.495 52.969L86.0016 52.0501ZM85.989 52.0301C85.2338 50.8633 84.1378 49.6585 82.6797 48.884L81.8519 50.4425C82.9712 51.037 83.8635 51.994 84.5075 52.989L85.989 52.0301ZM82.6536 48.8706C81.8472 48.4761 81.2935 47.8181 80.7377 46.9003L79.2282 47.8144C79.8506 48.8422 80.6225 49.8415 81.878 50.4558L82.6536 48.8706ZM80.7375 46.9C79.1244 44.2383 80.0646 40.7088 82.7862 39.1109L81.8927 37.5891C78.3548 39.6662 77.0858 44.2793 79.2283 47.8147L80.7375 46.9ZM82.7692 39.1206C86.8905 36.8219 88.21 31.6902 85.8212 27.7004L84.3071 28.6069C86.1895 31.7509 85.1525 35.7707 81.9096 37.5794L82.7692 39.1206ZM85.8273 27.7108L83.3604 23.4593L81.834 24.345L84.301 28.5965L85.8273 27.7108ZM83.3577 23.4547C81.0156 19.4743 75.8796 18.0665 71.8118 20.3985L72.6895 21.9294C75.9122 20.082 79.9813 21.1963 81.8367 24.3497L83.3577 23.4547ZM71.8352 20.3855C69.0056 21.8958 65.3572 20.8801 63.7241 18.2167L62.2196 19.1392C64.3422 22.6008 69.0152 23.891 72.6661 21.9424L71.8352 20.3855ZM63.7338 18.233C63.2073 17.3314 62.9468 16.4258 63.0053 15.5673L61.2447 15.4474C61.1559 16.7506 61.5581 18.0068 62.2099 19.1229L63.7338 18.233ZM63.0046 15.5765C63.133 13.9436 62.6187 12.4267 61.883 11.227L60.3786 12.1495C60.9685 13.1115 61.3379 14.2608 61.2453 15.4382L63.0046 15.5765ZM61.8841 11.2288C60.3732 8.7514 57.6309 7.05881 54.5768 7.05881V8.82351C56.9721 8.82351 59.1637 10.1574 60.3775 12.1476L61.8841 11.2288ZM54.5768 7.05881H49.3851V8.82351H54.5768V7.05881ZM49.3614 7.05913C46.3761 7.13916 43.6336 8.73802 42.1145 11.2288L43.6212 12.1476C44.8268 10.1708 47.0183 8.88728 49.4087 8.8232L49.3614 7.05913ZM42.1271 11.2088C41.3339 12.4343 40.8717 13.9497 40.9557 15.5535L42.718 15.4612C42.6548 14.2547 43.0026 13.1039 43.6086 12.1677L42.1271 11.2088ZM40.9566 15.5673C41.015 16.4258 40.7545 17.3314 40.2281 18.233L41.7519 19.1229C42.4037 18.0068 42.806 16.7506 42.7172 15.4474L40.9566 15.5673ZM40.2378 18.2167C38.6029 20.883 34.9552 21.8927 32.1672 20.3875L31.3289 21.9404C34.9477 23.8941 39.6214 22.5979 41.7422 19.1392L40.2378 18.2167ZM32.1836 20.3966C28.0792 18.0672 22.9862 19.4762 20.6076 23.4489L22.1217 24.3554C24.0143 21.1943 28.0528 20.0813 31.3125 21.9313L32.1836 20.3966ZM20.6015 23.4593L18.1345 27.7108L19.6609 28.5965L22.1278 24.345L20.6015 23.4593ZM18.1372 27.7062C15.792 31.692 17.1071 36.8189 21.1893 39.1187L22.0555 37.5812C18.8473 35.7738 17.8059 31.7492 19.6582 28.6011L18.1372 27.7062ZM21.1757 39.1109C23.8973 40.7088 24.8404 44.2421 23.2572 46.9066L24.7743 47.808C26.8732 44.2755 25.607 39.6662 22.0691 37.5891L21.1757 39.1109ZM23.2737 46.8799C22.6717 47.8154 22.117 48.4749 21.3083 48.8706L22.0838 50.4558C23.337 49.8427 24.1078 48.8448 24.7578 47.8348L23.2737 46.8799ZM21.2727 48.889C19.8902 49.6451 18.655 50.841 17.9757 52.0873L19.5252 52.9318C20.0241 52.0164 20.9981 51.0505 22.1194 50.4374L21.2727 48.889ZM17.9971 52.0501C16.4488 54.5889 16.5536 57.7474 18.0614 60.3393L19.5867 59.4519C18.3698 57.3599 18.3273 54.8979 19.5037 52.969L17.9971 52.0501ZM18.0633 60.3426L20.6039 64.6661L22.1254 63.7721L19.5848 59.4485L18.0633 60.3426ZM20.605 64.6679C22.1262 67.2427 24.9558 68.8485 27.9187 68.8485V67.0838C25.5795 67.0838 23.3278 65.8073 22.1243 63.7703L20.605 64.6679ZM27.9187 68.8485C29.3174 68.8485 30.9524 68.4512 32.282 67.638L31.3613 66.1325C30.3344 66.7606 29.0238 67.0838 27.9187 67.0838V68.8485ZM32.3105 67.6199C33.0329 67.1392 33.9433 66.9389 35.0619 66.9389V65.1742C33.7503 65.1742 32.4515 65.4064 31.3329 66.1507L32.3105 67.6199ZM35.0619 66.9389C38.234 66.9389 40.8911 69.5524 40.9547 72.6322L42.719 72.5957C42.6353 68.5417 39.1803 65.1742 35.0619 65.1742V66.9389ZM40.9545 72.614C40.9545 77.2764 44.7694 80.8823 49.4955 80.8823V79.1176C45.6793 79.1176 42.7192 76.2383 42.7192 72.614H40.9545ZM49.4955 80.8823H54.5031V79.1176H49.4955V80.8823ZM54.5031 80.8823C59.1953 80.8823 63.0073 77.2737 63.0073 72.614H61.2426C61.2426 76.241 58.2797 79.1176 54.5031 79.1176V80.8823ZM63.0069 72.6413C63.1026 69.5525 65.7666 66.9389 68.9368 66.9389V65.1742C64.8165 65.1742 61.3683 68.5416 61.243 72.5866L63.0069 72.6413ZM68.9368 66.9389C70.011 66.9389 70.9321 67.1363 71.7015 67.6285L72.6525 66.142C71.5072 65.4093 70.2191 65.1742 68.9368 65.1742V66.9389ZM71.7166 67.638C73.0445 68.4501 74.6422 68.8485 76.08 68.8485V67.0838C74.9403 67.0838 73.666 66.7616 72.6373 66.1325L71.7166 67.638ZM76.08 68.8485C79.0084 68.8485 81.8369 67.2406 83.3569 64.6679L81.8375 63.7703C80.6328 65.8093 78.38 67.0838 76.08 67.0838V68.8485ZM83.3551 64.6709L85.9325 60.3474L84.4167 59.4438L81.8393 63.7673L83.3551 64.6709ZM85.9481 60.3203C87.398 57.6797 87.5564 54.5996 86.0016 52.0501L84.495 52.969C85.6648 54.8871 85.6023 57.2835 84.4012 59.4709L85.9481 60.3203Z" fill="url(#paint1_linear_105_36)" mask="url(#path-3-outside-1_105_36)"/>
</g>
<g filter="url(#filter3_bd_105_36)">
<path d="M52.0453 53.8859C46.2645 53.8859 41.5883 49.3822 41.5883 43.7256C41.5883 38.069 46.2645 33.5293 52.0453 33.5293C57.8261 33.5293 62.3918 38.069 62.3918 43.7256C62.3918 49.3822 57.8261 53.8859 52.0453 53.8859Z" fill="white"/>
<path d="M52.0453 53.7094C46.3566 53.7094 41.7647 49.2796 41.7647 43.7256C41.7647 38.1709 46.3575 33.7058 52.0453 33.7058C57.7306 33.7058 62.2154 38.1684 62.2154 43.7256C62.2154 49.282 57.7314 53.7094 52.0453 53.7094Z" stroke="url(#paint2_linear_105_36)" stroke-width="0.352941"/>
</g>
<defs>
<filter id="filter0_b_105_36" x="-10.4706" y="-11.4706" width="79.4118" height="82.9412" filterUnits="userSpaceOnUse" color-interpolation-filters="sRGB">
<feFlood flood-opacity="0" result="BackgroundImageFix"/>
<feGaussianBlur in="BackgroundImageFix" stdDeviation="5.73529"/>
<feComposite in2="SourceAlpha" operator="in" result="effect1_backgroundBlur_105_36"/>
<feBlend mode="normal" in="SourceGraphic" in2="effect1_backgroundBlur_105_36" result="shape"/>
</filter>
<filter id="filter1_f_105_36" x="0.751006" y="0.610137" width="57.353" height="59.1176" filterUnits="userSpaceOnUse" color-interpolation-filters="sRGB">
<feFlood flood-opacity="0" result="BackgroundImageFix"/>
<feBlend mode="normal" in="SourceGraphic" in2="BackgroundImageFix" result="shape"/>
<feGaussianBlur stdDeviation="7.05882" result="effect1_foregroundBlur_105_36"/>
</filter>
<filter id="filter2_b_105_36" x="-4.29415" y="-14.1176" width="112.574" height="116.176" filterUnits="userSpaceOnUse" color-interpolation-filters="sRGB">
<feFlood flood-opacity="0" result="BackgroundImageFix"/>
<feGaussianBlur in="BackgroundImageFix" stdDeviation="10.5882"/>
<feComposite in2="SourceAlpha" operator="in" result="effect1_backgroundBlur_105_36"/>
<feBlend mode="normal" in="SourceGraphic" in2="effect1_backgroundBlur_105_36" result="shape"/>
</filter>
<filter id="filter3_bd_105_36" x="28.353" y="20.294" width="47.2742" height="46.8273" filterUnits="userSpaceOnUse" color-interpolation-filters="sRGB">
<feFlood flood-opacity="0" result="BackgroundImageFix"/>
<feGaussianBlur in="BackgroundImageFix" stdDeviation="6.61765"/>
<feComposite in2="SourceAlpha" operator="in" result="effect1_backgroundBlur_105_36"/>
<feColorMatrix in="SourceAlpha" type="matrix" values="0 0 0 0 0 0 0 0 0 0 0 0 0 0 0 0 0 0 127 0" result="hardAlpha"/>
<feOffset dx="4.41176" dy="4.41176"/>
<feGaussianBlur stdDeviation="4.41176"/>
<feColorMatrix type="matrix" values="0 0 0 0 0.980392 0 0 0 0 0.827451 0 0 0 0 0.313726 0 0 0 0.5 0"/>
<feBlend mode="normal" in2="effect1_backgroundBlur_105_36" result="effect2_dropShadow_105_36"/>
<feBlend mode="normal" in="SourceGraphic" in2="effect2_dropShadow_105_36" result="shape"/>
</filter>
<linearGradient id="paint0_linear_105_36" x1="33.3926" y1="34.0178" x2="-17.335" y2="57.2319" gradientUnits="userSpaceOnUse">
<stop stop-color="#FFDC73"/>
<stop offset="1" stop-color="#FDD356"/>
</linearGradient>
<linearGradient id="paint1_linear_105_36" x1="28.6618" y1="16.3361" x2="75.0684" y2="70.938" gradientUnits="userSpaceOnUse">
<stop stop-color="white" stop-opacity="0.25"/>
<stop offset="1" stop-color="white" stop-opacity="0"/>
</linearGradient>
<linearGradient id="paint2_linear_105_36" x1="44.8998" y1="35.9009" x2="57.823" y2="52.258" gradientUnits="userSpaceOnUse">
<stop stop-color="white" stop-opacity="0.25"/>
<stop offset="1" stop-color="white" stop-opacity="0"/>
</linearGradient>
</defs>
</svg>
