<svg width="240" height="157" viewBox="0 0 240 157" fill="none" xmlns="http://www.w3.org/2000/svg">
<path d="M15.5694 133.258L15.5752 133.266C25.2591 146.962 40.5138 153.7 61 153.7C81.4862 153.7 96.7409 146.962 106.425 133.266C116 119.724 120.7 101.181 120.7 77.8001C120.7 54.6802 115.931 36.2697 106.222 22.7296C96.5395 9.03957 81.3548 2.30005 61 2.30005C40.643 2.30005 25.4572 9.04103 15.7752 22.7341C6.20204 36.2733 1.5 54.6818 1.5 77.8001C1.5 101.177 6.13215 119.717 15.5694 133.258ZM75.2053 50.9521L75.2093 50.9622C77.6348 56.9621 78.9 65.8668 78.9 77.8001C78.9 90.002 77.6346 99.1108 75.2053 105.248L75.2022 105.256L75.1992 105.264C74.1055 108.119 72.409 110.19 70.1258 111.565C67.8226 112.953 64.8116 113.7 61 113.7C57.1895 113.7 54.1577 112.954 51.8169 111.561C49.4993 110.182 47.755 108.109 46.5978 105.255C44.2969 99.1081 43.1 89.9945 43.1 77.8001C43.1 65.8668 44.3652 56.9621 46.7907 50.9622L46.7907 50.9623L46.7947 50.9521C47.9581 48.0131 49.6967 45.8865 51.9861 44.4775C54.2906 43.0594 57.2655 42.3 61 42.3C64.7345 42.3 67.7094 43.0594 70.0139 44.4775C72.3033 45.8865 74.0419 48.0131 75.2053 50.9521ZM194.376 49.1025L194.623 50.3001H195.845H232.245H233.86L233.741 48.6898C232.785 35.7168 228.198 24.7874 219.948 15.9833C211.716 6.91955 199.658 2.50005 184.045 2.50005C164.768 2.50005 150.502 8.7666 141.614 21.5434C132.818 34.1881 128.545 53.7632 128.545 80.0001C128.545 103.737 132.563 122.322 140.77 135.589L140.774 135.597L140.779 135.605C149.283 148.987 164.272 155.5 185.245 155.5C195.836 155.5 205.085 153.463 212.94 149.329C220.923 145.199 227.011 139.326 231.16 131.723C235.433 124.002 237.545 115.079 237.545 105C237.545 89.8101 233.54 77.9159 225.319 69.5525C217.257 61.2156 206.511 57.1001 193.245 57.1001C186.911 57.1001 181.089 58.3407 175.803 60.8444C172.09 62.6032 168.963 64.8251 166.447 67.5177C166.809 57.3553 168.028 49.8786 170.028 44.9813C171.204 42.2649 172.768 40.3213 174.677 39.0481C176.588 37.7742 178.952 37.1001 181.845 37.1001C185.731 37.1001 188.424 38.0998 190.185 39.8607C192.027 41.7034 193.473 44.7139 194.376 49.1025ZM193.959 94.2345L193.972 94.2478L193.985 94.2607C196.438 96.7139 197.745 100.161 197.745 104.8C197.745 109.585 196.43 113.094 193.985 115.539C191.671 117.853 188.361 119.1 183.845 119.1C178.914 119.1 175.345 117.778 172.906 115.339C170.467 112.901 169.145 109.332 169.145 104.4C169.145 99.7858 170.503 96.4361 173.042 94.1211C175.794 91.7338 179.29 90.5001 183.645 90.5001C188.288 90.5001 191.649 91.8086 193.959 94.2345Z" stroke="#E6E6E6" stroke-width="3"/>
</svg>
