<svg width="234" height="158" viewBox="0 0 234 158" fill="none" xmlns="http://www.w3.org/2000/svg">
<path d="M16.3693 133.258L16.3751 133.266C26.059 146.962 41.3137 153.7 61.7999 153.7C82.286 153.7 97.5407 146.962 107.225 133.266C116.8 119.724 121.5 101.181 121.5 77.8001C121.5 54.6803 116.731 36.2697 107.021 22.7296C97.3394 9.03961 82.1547 2.3001 61.7999 2.3001C41.4428 2.3001 26.2571 9.04108 16.5751 22.7341C7.00192 36.2733 2.29988 54.6818 2.29988 77.8001C2.29988 101.177 6.93203 119.717 16.3693 133.258ZM76.0051 50.9522L76.0092 50.9623C78.4347 56.9621 79.6999 65.8668 79.6999 77.8001C79.6999 90.0021 78.4344 99.1109 76.0052 105.248L76.0021 105.256L75.9991 105.264C74.9054 108.119 73.2089 110.19 70.9257 111.565C68.6225 112.953 65.6115 113.7 61.7999 113.7C57.9893 113.7 54.9575 112.954 52.6168 111.561C50.2992 110.182 48.5549 108.109 47.3977 105.255C45.0967 99.1082 43.8999 89.9946 43.8999 77.8001C43.8999 65.8668 45.1651 56.9621 47.5905 50.9623L47.5906 50.9623L47.5946 50.9522C48.7579 48.0132 50.4965 45.8865 52.786 44.4776C55.0905 43.0595 58.0654 42.3001 61.7999 42.3001C65.5344 42.3001 68.5093 43.0595 70.8137 44.4776C73.1032 45.8865 74.8418 48.0132 76.0051 50.9522ZM127.546 50.347L127.491 51.9001H129.045H167.245H168.649L168.742 50.4999C168.996 46.6942 169.939 43.6269 171.498 41.2253C173.041 38.9146 175.396 37.7001 178.845 37.7001C181.981 37.7001 184.287 38.6511 185.951 40.426L185.967 40.4437L185.985 40.4608C187.596 42.0721 188.545 44.6813 188.545 48.6001C188.545 53.7265 186.888 56.7426 183.964 58.2635C180.777 59.8546 176.773 60.6293 171.885 60.5006L171.865 60.5001H171.845H165.045H163.545V62.0001V93.8001V95.3001H165.045H172.045C179.29 95.3001 184.145 96.5002 186.945 98.6001L186.957 98.6089L186.969 98.6174C189.818 100.669 191.345 103.889 191.345 108.6C191.345 112.303 190.305 115.105 188.355 117.17L188.339 117.187L188.324 117.204C186.533 119.218 183.979 120.3 180.445 120.3C175.672 120.3 172.347 118.929 170.18 116.42C167.982 113.874 166.889 110.171 167.143 105.075L167.222 103.5H165.645H127.445H125.909L125.946 105.036C126.352 121.984 131.451 134.852 141.476 143.345L141.484 143.352L141.493 143.359C151.57 151.642 165.144 155.7 182.045 155.7C192.354 155.7 201.324 153.869 208.906 150.147C216.473 146.432 222.3 141.244 226.329 134.576C230.354 127.914 232.345 120.239 232.345 111.6C232.345 102.89 230.267 95.4718 226.022 89.437C222.226 84.0407 216.765 79.8479 209.725 76.8179C214.577 74.6823 218.934 71.243 222.802 66.5547L222.808 66.5477L222.814 66.5406C227.484 60.738 229.745 53.1077 229.745 43.8001C229.745 35.9444 227.812 28.8678 223.922 22.6133C220.02 16.2054 214.254 11.2245 206.701 7.65109C199.247 3.92725 190.276 2.1001 179.845 2.1001C163.858 2.1001 151.186 6.23591 142.031 14.6947C132.86 23.0346 128.09 34.9933 127.546 50.347Z" stroke="#E6E6E6" stroke-width="3"/>
</svg>
