<svg width="232" height="156" viewBox="0 0 232 156" fill="none" xmlns="http://www.w3.org/2000/svg">
<path d="M16.3696 133.258L16.3754 133.266C26.0593 146.962 41.314 153.7 61.8002 153.7C82.2864 153.7 97.5411 146.962 107.225 133.266C116.8 119.724 121.5 101.181 121.5 77.8001C121.5 54.6802 116.731 36.2697 107.022 22.7296C97.3397 9.03957 82.155 2.30005 61.8002 2.30005C41.4432 2.30005 26.2574 9.04103 16.5754 22.7341C7.00224 36.2733 2.3002 54.6818 2.3002 77.8001C2.3002 101.177 6.93235 119.717 16.3696 133.258ZM76.0055 50.9521L76.0095 50.9622C78.435 56.9621 79.7002 65.8668 79.7002 77.8001C79.7002 90.002 78.4348 99.1108 76.0055 105.248L76.0024 105.256L75.9994 105.264C74.9057 108.119 73.2092 110.19 70.926 111.565C68.6228 112.953 65.6118 113.7 61.8002 113.7C57.9897 113.7 54.9579 112.954 52.6171 111.561C50.2995 110.182 48.5552 108.109 47.398 105.255C45.0971 99.1081 43.9002 89.9945 43.9002 77.8001C43.9002 65.8668 45.1654 56.9621 47.5909 50.9622L47.5909 50.9623L47.5949 50.9521C48.7583 48.0131 50.4969 45.8865 52.7864 44.4775C55.0908 43.0594 58.0657 42.3 61.8002 42.3C65.5347 42.3 68.5096 43.0594 70.8141 44.4775C73.1035 45.8865 74.8421 48.0131 76.0055 50.9521ZM125.12 120.419L124.546 120.87V121.6V151V152.5H126.046H228.046H229.546V151V119.2V117.7H228.046H182.739C195.027 108.702 205.398 98.6404 213.838 87.5104C223.348 75.1449 228.146 61.8305 228.146 47.6001C228.146 34.3303 224.029 23.4004 215.715 14.9482C207.329 6.4226 194.67 2.30005 178.046 2.30005C168.38 2.30005 159.557 4.20654 151.603 8.04477C143.586 11.7792 137.107 17.7217 132.168 25.8137C127.196 33.8272 124.553 43.9007 124.146 55.9495L124.094 57.5001H125.646H163.646H165.178L165.145 55.9682C165.015 49.8322 166.007 45.4613 167.894 42.6321L167.901 42.6204L167.909 42.6086C169.774 39.6938 172.305 38.3001 175.646 38.3001C179.033 38.3001 181.344 39.3697 182.861 41.321L182.877 41.3409L182.893 41.3603C184.598 43.4065 185.546 46.3562 185.546 50.4001C185.546 57.0575 182.909 64.223 177.427 71.9246C171.901 79.5553 165.046 87.0074 156.85 94.2779C148.614 101.584 138.04 110.297 125.12 120.419Z" stroke="#E6E6E6" stroke-width="3"/>
</svg>
